<?xml version="1.0" standalone="no"?>
<!DOCTYPE svg PUBLIC "-//W3C//DTD SVG 20010904//EN"
 "http://www.w3.org/TR/2001/REC-SVG-20010904/DTD/svg10.dtd">
<svg version="1.0" xmlns="http://www.w3.org/2000/svg"
 width="600.000000pt" height="800.000000pt" viewBox="0 0 600.000000 800.000000"
 preserveAspectRatio="xMidYMid meet">
<metadata>
Created by potrace 1.16, written by Peter Selinger 2001-2019
</metadata>
<g transform="translate(0.000000,800.000000) scale(0.100000,-0.100000)"
fill="#000000" stroke="none">
<path d="M0 4000 l0 -4000 3000 0 3000 0 0 4000 0 4000 -3000 0 -3000 0 0
-4000z m3221 2717 c125 -216 225 -395 222 -399 -5 -9 -913 -11 -913 -3 0 10
31 67 108 200 129 222 206 356 276 478 37 64 71 117 74 117 4 0 109 -177 233
-393z m1055 -1828 c704 -1219 684 -1184 684 -1198 0 -8 -539 -11 -1976 -11
-1772 0 -1976 2 -1970 15 5 14 703 1227 980 1705 56 96 148 255 205 353 l103
177 419 0 c230 0 419 -2 419 -4 0 -7 -47 -110 -119 -260 -39 -81 -71 -149 -71
-151 0 -1 -29 -63 -64 -136 -57 -120 -153 -324 -268 -569 -158 -336 -198 -420
-254 -539 -35 -73 -64 -135 -64 -136 0 -1 -29 -64 -65 -139 -36 -75 -65 -141
-65 -146 0 -7 274 -10 800 -10 l800 0 0 190 0 190 -460 0 c-253 0 -460 4 -460
9 0 7 59 137 177 391 17 36 106 227 198 425 92 198 186 398 208 445 22 47 65
141 97 210 122 265 121 263 135 242 8 -10 282 -484 611 -1053z m-776 -1499
c25 -14 12 -57 -16 -52 -68 13 -104 12 -131 -2 -83 -42 -84 -209 -2 -251 30
-16 86 -17 139 -4 10 3 16 -5 18 -22 3 -23 -2 -28 -42 -39 -109 -30 -208 29
-236 143 -21 80 19 184 83 219 53 28 142 32 187 8z m-2239 -28 c-11 -21 -49
-89 -86 -152 -36 -62 -67 -118 -68 -124 -1 -7 28 -13 83 -16 77 -5 85 -7 85
-25 0 -19 -8 -20 -132 -23 -73 -1 -133 1 -133 5 1 4 40 78 89 163 l88 155 -78
3 c-76 3 -79 4 -79 27 l0 25 125 0 125 0 -19 -38z m549 -107 c0 -132 2 -147
20 -165 12 -12 33 -20 53 -20 67 0 77 26 77 194 l0 136 31 0 31 0 -4 -147 c-4
-169 -14 -199 -74 -228 -71 -33 -157 -2 -181 66 -7 20 -12 92 -12 172 l-1 137
30 0 30 0 0 -145z m897 117 c55 -39 57 -115 4 -174 l-28 -31 39 -67 c21 -37
38 -70 38 -74 0 -3 -13 -6 -30 -6 -26 0 -34 7 -67 70 -33 60 -42 70 -65 70
-26 0 -27 -1 -30 -67 -3 -66 -4 -68 -30 -71 l-28 -3 0 191 0 192 83 -3 c66 -3
88 -8 114 -27z m1453 3 c0 -24 -3 -25 -56 -25 l-55 0 3 -52 3 -53 43 -3 c37
-3 42 -6 42 -28 0 -22 -4 -24 -45 -24 l-46 0 3 -57 3 -58 60 -5 c52 -4 60 -8
60 -25 0 -19 -7 -20 -90 -20 l-90 0 -3 188 -2 187 85 0 c84 0 85 0 85 -25z
m683 11 c76 -31 118 -122 99 -214 -22 -108 -83 -151 -214 -152 l-78 0 0 190 0
190 80 0 c46 0 95 -6 113 -14z"/>
<path d="M2577 3354 c-4 -4 -7 -38 -7 -76 l0 -68 38 0 c68 0 111 81 65 123
-21 18 -85 32 -96 21z"/>
<path d="M4710 3209 l0 -142 50 6 c80 10 110 39 125 120 5 25 1 48 -14 81 -22
52 -63 76 -126 76 l-35 0 0 -141z"/>
</g>
</svg>
